<svg width="21" height="22" viewBox="0 0 21 22" fill="none" xmlns="http://www.w3.org/2000/svg">
<path fill-rule="evenodd" clip-rule="evenodd" d="M3.7 0.4C3.88885 0.148194 4.18524 0 4.5 0H16.5C16.8148 0 17.1111 0.148194 17.3 0.4L20.3 4.4C20.4298 4.5731 20.5 4.78363 20.5 5V19C20.5 19.7957 20.1839 20.5587 19.6213 21.1213C19.0587 21.6839 18.2957 22 17.5 22H3.5C2.70435 22 1.94129 21.6839 1.37868 21.1213C0.81607 20.5587 0.5 19.7957 0.5 19V5C0.5 4.78363 0.570178 4.5731 0.7 4.4L3.7 0.4ZM5 2L2.5 5.33333V19C2.5 19.2652 2.60536 19.5196 2.79289 19.7071C2.98043 19.8946 3.23478 20 3.5 20H17.5C17.7652 20 18.0196 19.8946 18.2071 19.7071C18.3946 19.5196 18.5 19.2652 18.5 19V5.33333L16 2H5Z" fill="#686870"/>
</svg>
