<svg width="6" height="3" viewBox="0 0 6 3" fill="none" xmlns="http://www.w3.org/2000/svg">
<path fill-rule="evenodd" clip-rule="evenodd" d="M0.771831 0.135165C1.24956 -0.141956 1.86148 0.0206669 2.1386 0.498393C2.22651 0.649933 2.35268 0.77572 2.50449 0.863159C2.6563 0.950598 2.82841 0.996621 3.0036 0.996621C3.17879 0.996621 3.35091 0.950598 3.50271 0.863159C3.65452 0.77572 3.7807 0.649933 3.8686 0.498393C4.14572 0.0206669 4.75765 -0.141956 5.23537 0.135165C5.7131 0.412286 5.87572 1.02421 5.5986 1.50194C5.33489 1.95655 4.95637 2.33391 4.50094 2.59623C4.04552 2.85855 3.52917 2.99662 3.0036 2.99662C2.47803 2.99662 1.96169 2.85855 1.50626 2.59623C1.05084 2.33391 0.672318 1.95655 0.408603 1.50194C0.131482 1.02421 0.294104 0.412286 0.771831 0.135165Z" fill="#686870"/>
</svg>
