<svg width="23" height="19" viewBox="0 0 23 19" fill="none" xmlns="http://www.w3.org/2000/svg">
<path fill-rule="evenodd" clip-rule="evenodd" d="M3.42231 3.88373C2.74301 5.03334 2.51944 6.54025 2.73536 7.83558C3.16005 10.3834 5.36967 12.6795 7.71408 14.4158C8.85741 15.2625 9.9752 15.9342 10.8086 16.3944C11.1933 16.6068 11.5154 16.7731 11.749 16.8898C11.9826 16.7731 12.3047 16.6068 12.6894 16.3944C13.5228 15.9342 14.6406 15.2625 15.784 14.4158C18.1284 12.6795 20.338 10.3835 20.7627 7.8356C20.9786 6.54027 20.755 5.03335 20.0756 3.88373C19.4216 2.77693 18.3552 2 16.7491 2C15.1419 2 14.1626 2.78198 13.549 3.60001C13.2361 4.01722 13.0241 4.43971 12.8908 4.75963C12.8247 4.91826 12.7795 5.04799 12.7518 5.13415C12.738 5.17712 12.7286 5.20893 12.7233 5.2277L12.7183 5.24572L12.7187 5.24416C12.7185 5.24522 12.7186 5.24466 12.7183 5.24572C12.7182 5.24607 12.7184 5.2455 12.7183 5.24572C12.6056 5.68873 12.2065 6.00001 11.749 6C11.2915 5.99999 10.8925 5.68955 10.7799 5.24651C10.7798 5.2463 10.7799 5.24684 10.7799 5.24651L10.7747 5.22766C10.7693 5.2089 10.76 5.17709 10.7462 5.13412C10.7185 5.04796 10.6733 4.91823 10.6072 4.7596C10.4739 4.43969 10.2619 4.0172 9.94901 3.59999C9.3355 2.78198 8.35615 1.99999 6.74893 2C5.14271 2.00001 4.0763 2.77695 3.42231 3.88373ZM11.749 5C10.7788 5.24252 10.779 5.24295 10.7791 5.24337L10.7796 5.24538L10.7799 5.24651M11.749 2.68095C11.6861 2.58783 11.6195 2.49398 11.549 2.4C10.6625 1.218 9.14184 -8.70223e-06 6.74893 0C4.35502 8.70232e-06 2.67142 1.22307 1.70045 2.86628C0.754782 4.46667 0.478432 6.45975 0.762576 8.16442C1.32439 11.5349 4.11478 14.2389 6.52376 16.023C7.75712 16.9364 8.95437 17.6551 9.84182 18.1452C10.2864 18.3907 10.6556 18.5801 10.9155 18.709C11.0455 18.7734 11.1484 18.8229 11.2199 18.8567C11.2557 18.8736 11.2837 18.8866 11.3032 18.8957L11.3263 18.9063L11.333 18.9094L11.3352 18.9104C11.3355 18.9105 11.3365 18.9109 11.749 18L11.3365 18.9109C11.5987 19.0297 11.8993 19.0297 12.1615 18.911L11.749 18C12.1615 18.911 12.1612 18.9111 12.1615 18.911L12.1649 18.9094L12.1717 18.9063L12.1947 18.8957C12.2143 18.8866 12.2423 18.8736 12.278 18.8567C12.3496 18.8229 12.4524 18.7734 12.5825 18.709C12.8424 18.5801 13.2116 18.3907 13.6562 18.1452C14.5436 17.6551 15.7409 16.9364 16.9743 16.023C19.3833 14.2389 22.1737 11.5349 22.7355 8.1644C23.0196 6.45973 22.7432 4.46665 21.7975 2.86627C20.8265 1.22307 19.1429 0 16.7491 0C14.3562 0 12.8355 1.21802 11.949 2.39999C11.8785 2.49398 11.8119 2.58783 11.749 2.68095Z" fill="#686870"/>
</svg>
