<svg width="41" height="43" viewBox="0 0 41 43" fill="none" xmlns="http://www.w3.org/2000/svg">
<path fill-rule="evenodd" clip-rule="evenodd" d="M6.52398 18.3231C6.97975 18.1825 7.46322 18.4379 7.60386 18.8937L9.31093 24.4261C9.64824 25.5193 10.5049 26.3746 11.5986 26.7101L23.0824 30.2337C23.9875 30.5114 24.9669 30.4054 25.7917 29.9406L33.6727 25.4993C34.0883 25.2651 34.615 25.4122 34.8491 25.8277C35.0833 26.2432 34.9363 26.7699 34.5207 27.0041L26.6397 31.4454C25.4025 32.1426 23.9334 32.3015 22.5757 31.8849L11.0919 28.3614C9.45136 27.8581 8.16641 26.5751 7.66044 24.9354L5.95337 19.403C5.81274 18.9472 6.06821 18.4637 6.52398 18.3231Z" fill="#86868B"/>
<path d="M35.8288 28.1254C33.6958 25.6872 24.9698 22.9783 17.9276 21.5756C9.01997 19.8014 0.115137 21.5897 4.26621 15.0552C8.25631 8.77407 32.3306 7.19273 37.0312 26.8268C37.4143 28.4267 36.2908 28.6535 35.8288 28.1254Z" fill="#FF6633"/>
<path fill-rule="evenodd" clip-rule="evenodd" d="M20.128 10.6156C20.2441 11.0783 19.9631 11.5474 19.5005 11.6634C18.2491 11.9774 17.0304 12.8915 15.943 14.2456C14.8622 15.5915 13.9646 17.3079 13.3416 19.094C12.7182 20.8817 12.3854 22.6943 12.399 24.2207C12.413 25.7839 12.7855 26.8704 13.3677 27.4237C13.7134 27.7523 13.7273 28.2989 13.3987 28.6446C13.0701 28.9904 12.5235 29.0043 12.1777 28.6757C11.0868 27.6387 10.6873 25.9653 10.6718 24.2361C10.6561 22.4701 11.0367 20.4578 11.7107 18.5252C12.3853 16.5911 13.3694 14.6919 14.5962 13.1641C15.8164 11.6446 17.3309 10.4269 19.0802 9.98808C19.5428 9.87202 20.012 10.153 20.128 10.6156ZM27.2685 13.0406C27.3537 13.5099 27.0424 13.9594 26.5731 14.0447C25.618 14.2181 24.5159 14.85 23.4184 15.8915C22.332 16.9225 21.3085 18.3006 20.5041 19.8544C18.8777 22.9959 18.2453 26.6462 19.5024 29.4753C19.6961 29.9112 19.4998 30.4216 19.0639 30.6152C18.628 30.8089 18.1176 30.6126 17.924 30.1767C16.3667 26.6721 17.2225 22.4362 18.9702 19.0603C19.8529 17.3553 20.9879 15.8168 22.2294 14.6386C23.4598 13.471 24.855 12.6011 26.2645 12.3452C26.7338 12.26 27.1833 12.5713 27.2685 13.0406Z" fill="#86868B"/>
</svg>
